HIERARCHY
ROOT joint_Root
{
	OFFSET 0.0 0.0 0.0
	CHANNELS 6 Xposition Yposition Zposition Zrotation Xrotation Yrotation 
	JOINT Hips
	{
		OFFSET -17.1583 93.1646 452.98
		CHANNELS 6 Xposition Yposition Zposition Zrotation Xrotation Yrotation 
		JOINT Spine
		{
			OFFSET 15.7357 0.0 0.0
			CHANNELS 6 Xposition Yposition Zposition Zrotation Xrotation Yrotation 
			JOINT Chest
			{
				OFFSET 8.98455 -0.406207 0.0
				CHANNELS 6 Xposition Yposition Zposition Zrotation Xrotation Yrotation 
				JOINT Neck
				{
					OFFSET 16.3773 0.0 0.0
					CHANNELS 6 Xposition Yposition Zposition Zrotation Xrotation Yrotation 
					JOINT Head
					{
						OFFSET 6.45672 0.0 0.0
						CHANNELS 6 Xposition Yposition Zposition Zrotation Xrotation Yrotation 
						End Site
						{
							OFFSET 0.0 0.0 0.0
						}
					}
				}
				JOINT Shoulder_L
				{
					OFFSET 12.9942 -0.242716 4.98039
					CHANNELS 6 Xposition Yposition Zposition Zrotation Xrotation Yrotation 
					JOINT UpperArm_L
					{
						OFFSET 5.34809 0.0 0.0
						CHANNELS 6 Xposition Yposition Zposition Zrotation Xrotation Yrotation 
						JOINT LowerArm_L
						{
							OFFSET 24.3286 1.87007e-05 0.0
							CHANNELS 6 Xposition Yposition Zposition Zrotation Xrotation Yrotation 
							JOINT Hand_L
							{
								OFFSET 22.2916 0.0 0.0
								CHANNELS 6 Xposition Yposition Zposition Zrotation Xrotation Yrotation 
								End Site
								{
									OFFSET 0.0 0.0 0.0
								}
							}
						}
					}
				}
				JOINT Shoulder_R
				{
					OFFSET 12.9945 -0.242716 -4.98039
					CHANNELS 6 Xposition Yposition Zposition Zrotation Xrotation Yrotation 
					JOINT UpperArm_R
					{
						OFFSET -5.34813 0.0 0.0
						CHANNELS 6 Xposition Yposition Zposition Zrotation Xrotation Yrotation 
						JOINT LowerArm_R
						{
							OFFSET -24.3289 0.000322201 0.0
							CHANNELS 6 Xposition Yposition Zposition Zrotation Xrotation Yrotation 
							JOINT Hand_R
							{
								OFFSET -22.2915 -0.000108084 0.0
								CHANNELS 6 Xposition Yposition Zposition Zrotation Xrotation Yrotation 
								End Site
								{
									OFFSET 0.0 0.0 0.0
								}
							}
						}
					}
				}
			}
		}
		JOINT UpperLeg_L
		{
			OFFSET -2.19248 -6.46944 0.0
			CHANNELS 6 Xposition Yposition Zposition Zrotation Xrotation Yrotation 
			JOINT LowerLeg_L
			{
				OFFSET 39.0811 0.0 -1.23785e-05
				CHANNELS 6 Xposition Yposition Zposition Zrotation Xrotation Yrotation 
				JOINT Foot_L
				{
					OFFSET 40.9854 0.0 -1.26872e-05
					CHANNELS 6 Xposition Yposition Zposition Zrotation Xrotation Yrotation 
					JOINT Toes_L
					{
						OFFSET 11.7543 0.0 0.0
						CHANNELS 6 Xposition Yposition Zposition Zrotation Xrotation Yrotation 
						End Site
						{
							OFFSET 0.0 0.0 0.0
						}
					}
				}
			}
		}
		JOINT UpperLeg_R
		{
			OFFSET -2.19251 6.46944 0.0
			CHANNELS 6 Xposition Yposition Zposition Zrotation Xrotation Yrotation 
			JOINT LowerLeg_R
			{
				OFFSET -39.0811 -0.00228153 -0.0401928
				CHANNELS 6 Xposition Yposition Zposition Zrotation Xrotation Yrotation 
				JOINT Foot_R
				{
					OFFSET -40.9854 0.0 0.0
					CHANNELS 6 Xposition Yposition Zposition Zrotation Xrotation Yrotation 
					JOINT Toes_R
					{
						OFFSET -11.7543 0.0 0.0
						CHANNELS 6 Xposition Yposition Zposition Zrotation Xrotation Yrotation 
						End Site
						{
							OFFSET 0.0 0.0 0.0
						}
					}
				}
			}
		}
	}
}
MOTION
Frames:	4
Frame Time:	0.0333333
0.000000 0.000000 0.000000 0.000000 0.000000 -0.000000 -5.646460 93.095800 1.686090 88.387200 3.792270 -0.873254 15.735700 0.000005 -0.000001 47.671000 88.142400 -38.087300 8.984550 -0.406207 -0.000000 -4.655160 -3.534040 19.043600 16.377300 -0.000001 -0.000001 4.437730 7.395660 5.231910 6.456720 -0.000001 -0.000000 -3.291340 8.796540 15.954800 12.994200 -0.242716 4.980390 -87.246400 -5.183340 -61.970100 5.348090 -0.000007 -0.000001 -36.066800 -57.725500 -82.075200 24.328600 0.000019 0.000005 1.434620 37.337500 -2.364430 22.291600 -0.000001 0.000005 45.095900 4.399420 18.232400 12.994500 -0.242716 -4.980390 89.017100 3.207730 -72.954900 -5.348130 -0.000001 -0.000004 -62.523700 -1.745910 -3.136880 -24.328900 0.000322 -0.000009 0.060153 0.312965 -11.063300 -22.291500 -0.000108 -0.000004 9.134450 5.255280 1.292880 -2.192480 -6.469440 -0.000000 -168.987000 -9.370340 1.840670 39.081100 -0.000007 -0.000012 -0.006965 0.058679 6.768690 40.985400 -0.000006 -0.000013 -11.189200 20.145200 -61.540700 11.754300 -0.000000 0.000003 -0.001105 0.184516 -9.091810 -2.192510 6.469440 -0.000001 -178.638000 7.331240 -179.581000 -39.081100 -0.002282 -0.040193 0.046054 -0.205418 11.747600 -40.985400 0.000008 0.000006 -0.899521 2.109160 -69.129800 -11.754300 -0.000006 -0.000006 -0.012178 0.286919 -4.911860
0.000000 0.000000 0.000000 0.000000 0.000000 -0.000000 -5.642930 93.099500 1.639470 88.409100 3.786750 -0.860634 15.735700 0.000005 -0.000001 47.996000 88.146600 -38.419700 8.984550 -0.406207 -0.000000 -4.649350 -3.511600 19.029900 16.377300 -0.000001 -0.000001 4.430200 7.414410 5.177900 6.456720 -0.000001 -0.000000 -3.245740 8.847000 15.828200 12.994200 -0.242716 4.980390 -87.247800 -5.173720 -61.938300 5.348090 -0.000007 -0.000001 -36.017500 -57.701000 -82.086300 24.328600 0.000019 0.000005 1.452700 37.295100 -2.396520 22.291600 -0.000001 0.000005 45.038800 4.399960 18.223800 12.994500 -0.242716 -4.980390 89.026800 3.176780 -72.958200 -5.348130 -0.000001 -0.000004 -62.552000 -1.695110 -3.133960 -24.328900 0.000322 -0.000009 0.085757 0.441978 -11.111100 -22.291500 -0.000108 -0.000004 9.128390 5.253450 1.341630 -2.192480 -6.469440 -0.000000 -169.017000 -9.381970 1.832390 39.081100 -0.000007 -0.000012 -0.006699 0.056526 6.758190 40.985400 -0.000006 -0.000013 -11.209600 20.138100 -61.495400 11.754300 -0.000000 0.000003 -0.001092 0.184332 -9.099270 -2.192510 6.469440 -0.000001 -178.662000 7.317800 -179.630000 -39.081100 -0.002282 -0.040193 0.046877 -0.208137 11.815500 -40.985400 0.000008 0.000006 -0.900766 2.103400 -69.158200 -11.754300 -0.000006 -0.000006 -0.012287 0.287667 -4.881220
0.000000 0.000000 0.000000 0.000000 0.000000 -0.000000 -5.636880 93.100100 1.608680 88.437600 3.771600 -0.807814 15.735700 0.000005 -0.000001 48.708700 88.140800 -39.143600 8.984550 -0.406207 -0.000000 -4.612970 -3.480650 19.009400 16.377300 -0.000001 -0.000001 4.494400 7.459240 5.098700 6.456720 -0.000001 -0.000000 -3.332550 8.846410 15.768600 12.994200 -0.242716 4.980390 -87.252800 -5.158990 -61.914000 5.348090 -0.000007 -0.000001 -35.886300 -57.667400 -82.045800 24.328600 0.000019 0.000005 1.449080 37.446800 -2.382300 22.291600 -0.000001 0.000005 45.024300 4.396540 18.278400 12.994500 -0.242716 -4.980390 89.021000 3.196690 -72.963500 -5.348130 -0.000001 -0.000004 -62.502300 -1.598210 -3.104570 -24.328900 0.000322 -0.000009 0.096006 0.492065 -11.157300 -22.291500 -0.000108 -0.000004 9.186360 5.255700 1.282000 -2.192480 -6.469440 -0.000000 -169.043000 -9.446950 1.873810 39.081100 -0.000007 -0.000012 -0.006341 0.053590 6.747480 40.985400 -0.000006 -0.000013 -11.176700 20.181900 -61.439800 11.754300 -0.000000 0.000003 -0.001009 0.183162 -9.146850 -2.192510 6.469440 -0.000001 -178.693000 7.208780 -179.634000 -39.081100 -0.002282 -0.040193 0.047740 -0.210632 11.904600 -40.985400 0.000008 0.000006 -0.930431 1.999050 -69.213400 -11.754300 -0.000006 -0.000006 -0.012285 0.287652 -4.881860
0.000000 0.000000 0.000000 0.000000 0.000000 -0.000000 -5.636160 93.101300 1.585410 88.502300 3.810220 -0.760240 15.735700 0.000005 -0.000001 49.350300 88.137100 -39.813700 8.984550 -0.406207 -0.000000 -4.584050 -3.448520 18.954300 16.377300 -0.000001 -0.000001 4.554390 7.492130 5.042010 6.456720 -0.000001 -0.000000 -3.448550 8.837710 15.728500 12.994200 -0.242716 4.980390 -87.257800 -5.145630 -61.895700 5.348090 -0.000007 -0.000001 -35.971500 -57.611900 -82.197300 24.328600 0.000019 0.000005 1.492970 37.425400 -2.455590 22.291600 -0.000001 0.000005 44.942600 4.396540 18.278300 12.994500 -0.242716 -4.980390 89.016000 3.208600 -72.941400 -5.348130 -0.000001 -0.000004 -62.465500 -1.575180 -3.077300 -24.328900 0.000322 -0.000009 0.119310 0.609111 -11.177000 -22.291500 -0.000108 -0.000004 9.095540 5.252920 1.355240 -2.192480 -6.469440 -0.000000 -169.099000 -9.394900 1.949220 39.081100 -0.000007 -0.000012 -0.005708 0.049084 6.632100 40.985400 -0.000006 -0.000013 -11.251300 20.186000 -61.333000 11.754300 -0.000000 0.000003 -0.001153 0.185187 -9.064560 -2.192510 6.469440 -0.000001 -178.743000 7.158780 -179.633000 -39.081100 -0.002282 -0.040193 0.049818 -0.218990 11.983600 -40.985400 0.000008 0.000006 -0.820605 1.923990 -69.303800 -11.754300 -0.000006 -0.000006 -0.012417 0.288560 -4.844660
